<?xml version="1.0" encoding="utf-8"?>
<!-- Generator: Adobe Illustrator 27.0.1, SVG Export Plug-In . SVG Version: 6.00 Build 0)  -->
<svg version="1.1" id="Layer_1" xmlns="http://www.w3.org/2000/svg" xmlns:xlink="http://www.w3.org/1999/xlink" x="0px" y="0px"
	 viewBox="0 0 34.3 38.1" style="enable-background:new 0 0 34.3 38.1;" xml:space="preserve">
<style type="text/css">
	.st0{fill:#FFFFFF;}
</style>
<path class="st0" d="M17.1,37.9c-0.6,0-1.1-0.1-1.5-0.4c-0.4-0.3-0.7-0.7-0.8-1.1h-0.4c-0.5,0-1-0.2-1.3-0.6
	c-0.4-0.4-0.6-0.8-0.6-1.3v-4.6C11,29,9.9,27.8,9.1,26.4c-0.8-1.4-1.2-3-1.2-4.7c0-2.6,0.9-4.8,2.7-6.6c1.8-1.8,4-2.7,6.6-2.7
	c2.6,0,4.8,0.9,6.6,2.7c1.8,1.8,2.7,4,2.7,6.6c0,1.7-0.4,3.3-1.2,4.7c-0.8,1.4-1.9,2.6-3.3,3.5v4.6c0,0.5-0.2,1-0.6,1.3
	s-0.8,0.6-1.3,0.6h-0.4c-0.1,0.5-0.4,0.9-0.8,1.1C18.3,37.8,17.8,37.9,17.1,37.9L17.1,37.9z M14.3,34.4H20V33h-5.6V34.4z M14.3,31.8
	H20v-1.3h-5.6V31.8z"/>
<path class="st0" d="M0.9,23.3c-0.2,0-0.4-0.1-0.6-0.4c-0.1-0.3-0.2-0.6-0.2-1s0.1-0.7,0.2-1c0.1-0.3,0.3-0.4,0.6-0.4h2.6
	c0.2,0,0.4,0.1,0.6,0.4c0.1,0.3,0.2,0.6,0.2,1s-0.1,0.7-0.2,1c-0.1,0.3-0.3,0.4-0.6,0.4H0.9z M30.5,23.3c-0.2,0-0.4-0.1-0.6-0.4
	c-0.2-0.3-0.2-0.6-0.2-1s0.1-0.7,0.2-1c0.2-0.3,0.4-0.4,0.6-0.4h2.8c0.2,0,0.4,0.1,0.6,0.4c0.2,0.3,0.2,0.6,0.2,1s-0.1,0.7-0.2,1
	c-0.2,0.3-0.4,0.4-0.6,0.4H30.5z M17,9.3c-0.4,0-0.7-0.2-1-0.5c-0.3-0.3-0.4-0.7-0.4-1.2V1.9c0-0.5,0.1-0.9,0.4-1.2
	c0.3-0.3,0.6-0.5,1-0.5s0.7,0.2,1,0.5c0.3,0.3,0.4,0.7,0.4,1.2v5.7c0,0.5-0.1,0.9-0.4,1.2C17.7,9.2,17.4,9.3,17,9.3z M6.1,13
	l-2.6-2.5c-0.3-0.3-0.4-0.6-0.4-1s0.1-0.7,0.4-1c0.3-0.3,0.6-0.4,1-0.4s0.7,0.1,1,0.4L8,11.1c0.2,0.3,0.4,0.6,0.4,0.9S8.2,12.7,8,13
	c-0.2,0.3-0.6,0.4-0.9,0.4C6.7,13.4,6.3,13.3,6.1,13L6.1,13z M26,13c-0.3-0.3-0.4-0.6-0.4-0.9s0.1-0.7,0.4-0.9l2.5-2.6
	c0.3-0.3,0.6-0.4,1-0.4c0.4,0,0.7,0.1,1,0.4c0.3,0.3,0.4,0.6,0.4,1c0,0.4-0.1,0.7-0.4,1L27.9,13c-0.2,0.2-0.6,0.4-0.9,0.4
	C26.6,13.4,26.3,13.2,26,13L26,13z"/>
</svg>
